REM DIRINDEX 1\2,1\3,1\4,1\5
REM DIRNAME cjc093,folder01,folder02,folder03,folder04
TITLE ""
FILE "Round-14-326-327.mp3" MP3
  TRACK 01 AUDIO
    TITLE "0:"
    INDEX 01 00:00:00
  TRACK 02 AUDIO
    TITLE "5:cjc093_3543"
    INDEX 01 00:00:01
  TRACK 03 AUDIO
    TITLE "0:"
    INDEX 01 00:01:30
  TRACK 04 AUDIO
    TITLE "5:cjc093_3544"
    INDEX 01 00:02:08
  TRACK 05 AUDIO
    TITLE "0:"
    INDEX 01 00:04:03
  TRACK 06 AUDIO
    TITLE "2:cjc093_3545"
    INDEX 01 00:04:52
  TRACK 07 AUDIO
    TITLE "0:"
    INDEX 01 00:05:57
  TRACK 08 AUDIO
    TITLE "3:cjc093_3546"
    INDEX 01 00:06:14
  TRACK 09 AUDIO
    TITLE "0:"
    INDEX 01 00:07:25
  TRACK 10 AUDIO
    TITLE "4:cjc093_3547"
    INDEX 01 00:07:68
  TRACK 11 AUDIO
    TITLE "0:"
    INDEX 01 00:10:06
  TRACK 12 AUDIO
    TITLE "3:cjc093_3548"
    INDEX 01 00:11:29
  TRACK 13 AUDIO
    TITLE "0:"
    INDEX 01 00:13:14
  TRACK 14 AUDIO
    TITLE "4:cjc093_3549"
    INDEX 01 00:13:53
  TRACK 15 AUDIO
    TITLE "0:"
    INDEX 01 00:19:09
  TRACK 16 AUDIO
    TITLE "2:cjc093_3550"
    INDEX 01 00:20:22
  TRACK 17 AUDIO
    TITLE "0:"
    INDEX 01 00:21:15
  TRACK 18 AUDIO
    TITLE "3:cjc093_3551"
    INDEX 01 00:21:45
  TRACK 19 AUDIO
    TITLE "0:"
    INDEX 01 00:22:52
  TRACK 20 AUDIO
    TITLE "4:cjc093_3552"
    INDEX 01 00:23:03
  TRACK 21 AUDIO
    TITLE "0:"
    INDEX 01 00:26:34
  TRACK 22 AUDIO
    TITLE "2:cjc093_3553"
    INDEX 01 00:27:45
  TRACK 23 AUDIO
    TITLE "0:"
    INDEX 01 00:28:53
  TRACK 24 AUDIO
    TITLE "3:cjc093_3554"
    INDEX 01 00:29:38
  TRACK 25 AUDIO
    TITLE "0:"
    INDEX 01 00:31:45
  TRACK 26 AUDIO
    TITLE "4:cjc093_3555"
    INDEX 01 00:32:05
  TRACK 27 AUDIO
    TITLE "0:"
    INDEX 01 00:34:26
  TRACK 28 AUDIO
    TITLE "2:cjc093_3556"
    INDEX 01 00:35:37
  TRACK 29 AUDIO
    TITLE "0:"
    INDEX 01 00:36:44
  TRACK 30 AUDIO
    TITLE "3:cjc093_3557"
    INDEX 01 00:37:10
  TRACK 31 AUDIO
    TITLE "0:"
    INDEX 01 00:39:07
  TRACK 32 AUDIO
    TITLE "4:cjc093_3558"
    INDEX 01 00:39:35
  TRACK 33 AUDIO
    TITLE "0:"
    INDEX 01 00:43:25
  TRACK 34 AUDIO
    TITLE "3:cjc093_3559"
    INDEX 01 00:44:32
  TRACK 35 AUDIO
    TITLE "0:"
    INDEX 01 00:45:47
  TRACK 36 AUDIO
    TITLE "4:cjc093_3560"
    INDEX 01 00:46:25
  TRACK 37 AUDIO
    TITLE "0:"
    INDEX 01 00:49:55
  TRACK 38 AUDIO
    TITLE "2:cjc093_3561"
    INDEX 01 00:50:66
  TRACK 39 AUDIO
    TITLE "0:"
    INDEX 01 00:51:73
  TRACK 40 AUDIO
    TITLE "3:cjc093_3562"
    INDEX 01 00:52:28
  TRACK 41 AUDIO
    TITLE "0:"
    INDEX 01 00:53:41
  TRACK 42 AUDIO
    TITLE "4:cjc093_3563"
    INDEX 01 00:53:57
  TRACK 43 AUDIO
    TITLE "0:"
    INDEX 01 00:55:42
  TRACK 44 AUDIO
    TITLE "2:cjc093_3564"
    INDEX 01 00:56:57
  TRACK 45 AUDIO
    TITLE "0:"
    INDEX 01 00:57:60
  TRACK 46 AUDIO
    TITLE "3:cjc093_3565"
    INDEX 01 00:58:38
  TRACK 47 AUDIO
    TITLE "0:"
    INDEX 01 01:00:70
  TRACK 48 AUDIO
    TITLE "4:cjc093_3566"
    INDEX 01 01:01:03
  TRACK 49 AUDIO
    TITLE "0:"
    INDEX 01 01:03:65
  TRACK 50 AUDIO
    TITLE "2:cjc093_3567"
    INDEX 01 01:05:05
  TRACK 51 AUDIO
    TITLE "0:"
    INDEX 01 01:06:08
  TRACK 52 AUDIO
    TITLE "3:cjc093_3568"
    INDEX 01 01:06:43
  TRACK 53 AUDIO
    TITLE "0:"
    INDEX 01 01:08:40
  TRACK 54 AUDIO
    TITLE "4:cjc093_3569"
    INDEX 01 01:08:70
  TRACK 55 AUDIO
    TITLE "0:"
    INDEX 01 01:11:60
  TRACK 56 AUDIO
    TITLE "2:cjc093_3570"
    INDEX 01 01:13:00
  TRACK 57 AUDIO
    TITLE "0:"
    INDEX 01 01:13:53
  TRACK 58 AUDIO
    TITLE "3:cjc093_3571"
    INDEX 01 01:14:12
  TRACK 59 AUDIO
    TITLE "0:"
    INDEX 01 01:15:27
  TRACK 60 AUDIO
    TITLE "4:cjc093_3572"
    INDEX 01 01:15:64
  TRACK 61 AUDIO
    TITLE "0:"
    INDEX 01 01:18:45
